# xmcd CD database file
#
# Track frame offsets:
#	150
#	20570
#	36931
#	56707
#	80310
#	97598
#	113869
#	126562
#	146886
#	167102
#	184219
#	205050
#	227110
#	252286
#	268911
#	293566
#
# Disc length: 4085 seconds
#
# Revision: 4
# Processed by: cddbd v1.5.2PL0 Copyright (c) Steve Scherf et al.
# Submitted via: CDex 1.70beta2
#
DISCID=ea0ff310
DTITLE=Olivia Ong - 憭??◢LIVE
DYEAR=2010
DGENRE=Country
TTITLE0=I Can't Go For That (No Can Do)
TTITLE1=Luka
TTITLE2=Killing Me Softly With His Song
TTITLE3=如燕
TTITLE4=夢一場
TTITLE5=Ain't No Sunshine
TTITLE6=Here, There and Everywhere
TTITLE7=Have I Told You Lately
TTITLE8=Bittersweet
TTITLE9=I Feel The Earth Move
TTITLE10=Don't You Worry 'bout A Thing
TTITLE11=我願意
TTITLE12=Lost In Emotion and Stand By Me
TTITLE13=You and Me
TTITLE14=Never Can Say Goodbye
TTITLE15=憭??◢蝯
EXTD=YEAR: 2010
EXTT0=
EXTT1=
EXTT2=
EXTT3=
EXTT4=
EXTT5=
EXTT6=
EXTT7=
EXTT8=
EXTT9=
EXTT10=
EXTT11=
EXTT12=
EXTT13=
EXTT14=
EXTT15=
PLAYORDER=
